G04*
G04 #@! TF.GenerationSoftware,Altium Limited,Altium Designer,23.0.1 (38)*
G04*
G04 Layer_Color=65535*
%FSLAX44Y44*%
%MOMM*%
G71*
G04*
G04 #@! TF.SameCoordinates,AC91A941-50EC-41E1-A27D-3A9DBE1CF2D1*
G04*
G04*
G04 #@! TF.FilePolarity,Positive*
G04*
G01*
G75*
%ADD10C,0.2500*%
%ADD11C,0.1500*%
%ADD12C,0.2000*%
%ADD13C,0.6000*%
%ADD14C,0.2540*%
%ADD15C,0.1270*%
%ADD16R,2.7173X0.9490*%
D10*
X728750Y389500D02*
G03*
X728750Y389500I-1250J0D01*
G01*
X766500Y1138750D02*
G03*
X766500Y1138750I-1250J0D01*
G01*
X456500Y1138750D02*
G03*
X456500Y1138750I-1250J0D01*
G01*
X694750Y1142675D02*
G03*
X694750Y1142675I-1250J0D01*
G01*
X538150Y786100D02*
G03*
X538150Y786100I-1250J0D01*
G01*
X741250Y890500D02*
G03*
X741250Y890500I-1250J0D01*
G01*
D11*
X492500Y1265000D02*
G03*
X492500Y1265000I-52500J0D01*
G01*
X632500Y415000D02*
G03*
X632500Y415000I-52500J0D01*
G01*
D12*
X568650Y785500D02*
G03*
X581350Y785500I6350J0D01*
G01*
X753352Y939339D02*
G03*
X753355Y900664I-13352J-19339D01*
G01*
X696000Y682000D02*
G03*
X696000Y682000I-1000J0D01*
G01*
X651400Y451000D02*
X678600D01*
Y399000D02*
Y451000D01*
X651400Y399000D02*
X678600D01*
X651400D02*
Y451000D01*
X779950Y413960D02*
Y456000D01*
X720050Y413960D02*
Y456000D01*
X738710Y464950D02*
X761000D01*
X738710Y405050D02*
X761289D01*
X712700Y1204600D02*
Y1255400D01*
X687300Y1204600D02*
X712700D01*
X687300D02*
Y1255400D01*
X712700D01*
X559600Y942300D02*
X610400D01*
X559600D02*
Y967700D01*
X610400D01*
Y942300D02*
Y967700D01*
X731250Y1132000D02*
X788750D01*
X731250Y1058000D02*
Y1132000D01*
Y1058000D02*
X788750D01*
Y1132000D01*
X421250D02*
X478750D01*
X421250Y1058000D02*
Y1132000D01*
Y1058000D02*
X478750D01*
Y1132000D01*
X580500Y1112250D02*
X590500Y1157750D01*
X679500D02*
X689500Y1112250D01*
X590500Y1157750D02*
X679500D01*
X580500Y1112250D02*
X689500D01*
X404500Y1227500D02*
X475500D01*
X369600Y722700D02*
X420400D01*
Y697300D02*
Y722700D01*
X369600Y697300D02*
X420400D01*
X369600D02*
Y722700D01*
X622500Y1020000D02*
Y1030250D01*
Y1049750D02*
Y1060000D01*
X567500D02*
X622500D01*
X567500Y1020000D02*
Y1030250D01*
Y1049750D02*
Y1060000D01*
Y1020000D02*
X622500D01*
X548500Y684500D02*
Y785500D01*
X601500Y684500D02*
Y785500D01*
X548500D02*
X568650D01*
X581350D02*
X601500D01*
X548500Y684500D02*
X601500D01*
X753350Y900664D02*
Y939337D01*
X374600Y797300D02*
X425400D01*
X374600D02*
Y822700D01*
X425400D01*
Y797300D02*
Y822700D01*
X434600Y967701D02*
X485400D01*
Y942301D02*
Y967701D01*
X434600Y942301D02*
X485400D01*
X434600D02*
Y967701D01*
X544500Y377500D02*
X615500D01*
X752998Y1048996D02*
X748999D01*
X747000Y1046997D01*
Y1038999D01*
X748999Y1037000D01*
X752998D01*
X754997Y1038999D01*
Y1046997D01*
X752998Y1048996D01*
X758996D02*
Y1038999D01*
X760995Y1037000D01*
X764994D01*
X766993Y1038999D01*
Y1048996D01*
X770992D02*
X778990D01*
X774991D01*
Y1037000D01*
X392000Y1108996D02*
X395999D01*
X393999D01*
Y1097000D01*
X392000D01*
X395999D01*
X401997D02*
Y1108996D01*
X409994Y1097000D01*
Y1108996D01*
D13*
X561500Y775500D02*
G03*
X561500Y775500I-3000J0D01*
G01*
D14*
X315000Y355000D02*
X815000D01*
X315000Y1355000D02*
X815000D01*
Y355000D02*
Y1355000D01*
X315000Y355000D02*
Y1355000D01*
X528668Y811365D02*
Y798669D01*
X531207Y796130D01*
X536286D01*
X538825Y798669D01*
Y811365D01*
X554060Y796130D02*
X543903D01*
X554060Y806287D01*
Y808826D01*
X551521Y811365D01*
X546442D01*
X543903Y808826D01*
X731103Y496914D02*
X728564Y499453D01*
X723485D01*
X720946Y496914D01*
Y494375D01*
X723485Y491836D01*
X728564D01*
X731103Y489296D01*
Y486757D01*
X728564Y484218D01*
X723485D01*
X720946Y486757D01*
X736181Y499453D02*
Y484218D01*
X741259Y489296D01*
X746338Y484218D01*
Y499453D01*
X751416Y484218D02*
X756495D01*
X753955D01*
Y499453D01*
X751416Y496914D01*
X415544Y976551D02*
Y991786D01*
X423162D01*
X425701Y989247D01*
Y984168D01*
X423162Y981629D01*
X415544D01*
X420622D02*
X425701Y976551D01*
X430779D02*
X435857D01*
X433318D01*
Y991786D01*
X430779Y989247D01*
X453632Y976551D02*
X443475D01*
X453632Y986708D01*
Y989247D01*
X451092Y991786D01*
X446014D01*
X443475Y989247D01*
X688688Y1284826D02*
Y1300061D01*
X696305D01*
X698845Y1297522D01*
Y1292444D01*
X696305Y1289904D01*
X688688D01*
X693766D02*
X698845Y1284826D01*
X703923D02*
X709001D01*
X706462D01*
Y1300061D01*
X703923Y1297522D01*
X716619Y1284826D02*
X721697D01*
X719158D01*
Y1300061D01*
X716619Y1297522D01*
X540352Y976470D02*
Y991705D01*
X547970D01*
X550509Y989166D01*
Y984088D01*
X547970Y981548D01*
X540352D01*
X545430D02*
X550509Y976470D01*
X555587D02*
X560665D01*
X558126D01*
Y991705D01*
X555587Y989166D01*
X568283D02*
X570822Y991705D01*
X575900D01*
X578440Y989166D01*
Y979009D01*
X575900Y976470D01*
X570822D01*
X568283Y979009D01*
Y989166D01*
X685640Y780890D02*
Y796125D01*
X693258D01*
X695797Y793586D01*
Y788508D01*
X693258Y785968D01*
X685640D01*
X690718D02*
X695797Y780890D01*
X700875Y783429D02*
X703414Y780890D01*
X708493D01*
X711032Y783429D01*
Y793586D01*
X708493Y796125D01*
X703414D01*
X700875Y793586D01*
Y791047D01*
X703414Y788508D01*
X711032D01*
X355520Y831690D02*
Y846925D01*
X363138D01*
X365677Y844386D01*
Y839307D01*
X363138Y836768D01*
X355520D01*
X360598D02*
X365677Y831690D01*
X370755Y844386D02*
X373294Y846925D01*
X378373D01*
X380912Y844386D01*
Y841847D01*
X378373Y839307D01*
X380912Y836768D01*
Y834229D01*
X378373Y831690D01*
X373294D01*
X370755Y834229D01*
Y836768D01*
X373294Y839307D01*
X370755Y841847D01*
Y844386D01*
X373294Y839307D02*
X378373D01*
X350520Y731520D02*
Y746755D01*
X358138D01*
X360677Y744216D01*
Y739137D01*
X358138Y736598D01*
X350520D01*
X355598D02*
X360677Y731520D01*
X365755Y746755D02*
X375912D01*
Y744216D01*
X365755Y734059D01*
Y731520D01*
X591149Y1170017D02*
Y1180174D01*
X588610Y1182713D01*
X583531D01*
X580992Y1180174D01*
Y1170017D01*
X583531Y1167478D01*
X588610D01*
X586070Y1172556D02*
X591149Y1167478D01*
X588610D02*
X591149Y1170017D01*
X596227Y1182713D02*
X606384D01*
Y1180174D01*
X596227Y1170017D01*
Y1167478D01*
X728055Y961991D02*
Y972148D01*
X725516Y974687D01*
X720437D01*
X717898Y972148D01*
Y961991D01*
X720437Y959452D01*
X725516D01*
X722976Y964530D02*
X728055Y959452D01*
X725516D02*
X728055Y961991D01*
X743290Y974687D02*
X738211Y972148D01*
X733133Y967069D01*
Y961991D01*
X735672Y959452D01*
X740751D01*
X743290Y961991D01*
Y964530D01*
X740751Y967069D01*
X733133D01*
X742025Y1164171D02*
X736946D01*
X739485D01*
Y1151475D01*
X736946Y1148936D01*
X734407D01*
X731868Y1151475D01*
X754721Y1148936D02*
Y1164171D01*
X747103Y1156553D01*
X757260D01*
X431891Y1164171D02*
X426812D01*
X429352D01*
Y1151475D01*
X426812Y1148936D01*
X424273D01*
X421734Y1151475D01*
X436969Y1161632D02*
X439508Y1164171D01*
X444587D01*
X447126Y1161632D01*
Y1159093D01*
X444587Y1156553D01*
X442047D01*
X444587D01*
X447126Y1154014D01*
Y1151475D01*
X444587Y1148936D01*
X439508D01*
X436969Y1151475D01*
X509843Y882617D02*
Y867383D01*
X517461D01*
X520000Y869922D01*
Y880078D01*
X517461Y882617D01*
X509843D01*
X525078Y867383D02*
X530157D01*
X527618D01*
Y882617D01*
X525078Y880078D01*
X574639Y1082384D02*
X572099Y1084923D01*
X567021D01*
X564482Y1082384D01*
Y1072227D01*
X567021Y1069688D01*
X572099D01*
X574639Y1072227D01*
X589874Y1084923D02*
X579717D01*
Y1077306D01*
X584795Y1079845D01*
X587335D01*
X589874Y1077306D01*
Y1072227D01*
X587335Y1069688D01*
X582256D01*
X579717Y1072227D01*
X398109Y1339940D02*
X395569Y1342479D01*
X390491D01*
X387952Y1339940D01*
Y1329783D01*
X390491Y1327244D01*
X395569D01*
X398109Y1329783D01*
X410805Y1327244D02*
Y1342479D01*
X403187Y1334861D01*
X413344D01*
X538223Y489708D02*
X535684Y492247D01*
X530605D01*
X528066Y489708D01*
Y479551D01*
X530605Y477012D01*
X535684D01*
X538223Y479551D01*
X543301Y489708D02*
X545840Y492247D01*
X550919D01*
X553458Y489708D01*
Y487169D01*
X550919Y484630D01*
X548379D01*
X550919D01*
X553458Y482090D01*
Y479551D01*
X550919Y477012D01*
X545840D01*
X543301Y479551D01*
D15*
X685950Y689500D02*
Y694000D01*
Y689500D02*
X707300D01*
Y694000D01*
X707200D02*
X707300D01*
X732700D01*
Y689500D02*
Y694000D01*
Y689500D02*
X754050D01*
Y694000D01*
X685950Y718000D02*
Y755100D01*
X701300Y770500D01*
X740000D01*
X754050Y756500D01*
Y714500D02*
Y756500D01*
D16*
X664983Y446258D02*
D03*
M02*
