G04*
G04 #@! TF.GenerationSoftware,Altium Limited,Altium Designer,23.0.1 (38)*
G04*
G04 Layer_Physical_Order=2*
G04 Layer_Color=16711680*
%FSLAX44Y44*%
%MOMM*%
G71*
G04*
G04 #@! TF.SameCoordinates,35DA4C4B-C9ED-44D6-BC94-0C2FA2B5732E*
G04*
G04*
G04 #@! TF.FilePolarity,Positive*
G04*
G01*
G75*
%ADD16C,0.1000*%
%ADD17C,2.5000*%
%ADD18R,2.5000X2.5000*%
%ADD29R,2.5000X2.5000*%
%ADD30C,4.8000*%
%ADD31C,1.5000*%
%ADD32R,1.0500X1.0500*%
%ADD33C,1.0500*%
%ADD34C,1.6500*%
%ADD35R,1.6500X1.6500*%
G04:AMPARAMS|DCode=36|XSize=1.4mm|YSize=1.4mm|CornerRadius=0.049mm|HoleSize=0mm|Usage=FLASHONLY|Rotation=0.000|XOffset=0mm|YOffset=0mm|HoleType=Round|Shape=RoundedRectangle|*
%AMROUNDEDRECTD36*
21,1,1.4000,1.3020,0,0,0.0*
21,1,1.3020,1.4000,0,0,0.0*
1,1,0.0980,0.6510,-0.6510*
1,1,0.0980,-0.6510,-0.6510*
1,1,0.0980,-0.6510,0.6510*
1,1,0.0980,0.6510,0.6510*
%
%ADD36ROUNDEDRECTD36*%
%ADD37C,1.4000*%
%ADD38C,1.5000*%
%ADD39C,0.8000*%
G36*
X482293Y1338508D02*
X482447D01*
Y1338199D01*
X482602D01*
Y1338045D01*
Y1337891D01*
Y1337736D01*
X482756D01*
Y1337274D01*
X482910D01*
Y1336811D01*
X483064D01*
Y1336348D01*
X483219D01*
Y1336039D01*
X483064D01*
Y1335885D01*
X482602D01*
Y1335731D01*
X482293D01*
Y1335576D01*
X481984D01*
Y1335422D01*
X481522D01*
Y1335268D01*
X481367D01*
Y1335113D01*
X481059D01*
Y1334959D01*
X480905D01*
Y1334805D01*
X480596D01*
Y1334651D01*
X480442D01*
Y1334496D01*
X480133D01*
Y1334342D01*
X479979D01*
Y1334188D01*
X479824D01*
Y1334033D01*
X479670D01*
Y1333879D01*
X479516D01*
Y1333725D01*
X479362D01*
Y1333571D01*
X479207D01*
Y1333416D01*
X479053D01*
Y1333262D01*
X478899D01*
Y1332953D01*
X478744D01*
Y1332799D01*
X478590D01*
Y1332645D01*
X478436D01*
Y1332336D01*
X478282D01*
Y1332182D01*
X478127D01*
Y1331873D01*
X477973D01*
Y1331565D01*
X477819D01*
Y1331256D01*
X477664D01*
Y1330793D01*
X477510D01*
Y1330330D01*
X477356D01*
Y1329713D01*
X477201D01*
Y1328325D01*
X474116D01*
Y1329868D01*
X474270D01*
Y1330793D01*
X474424D01*
Y1331256D01*
X474579D01*
Y1331719D01*
X474733D01*
Y1332182D01*
X474887D01*
Y1332491D01*
X475041D01*
Y1332799D01*
X475196D01*
Y1333108D01*
X475350D01*
Y1333416D01*
X475504D01*
Y1333725D01*
X475659D01*
Y1333879D01*
X475813D01*
Y1334188D01*
X475967D01*
Y1334342D01*
X476121D01*
Y1334496D01*
X476276D01*
Y1334805D01*
X476430D01*
Y1334959D01*
X476584D01*
Y1335113D01*
X476739D01*
Y1335268D01*
X476893D01*
Y1335422D01*
X477047D01*
Y1335576D01*
X477201D01*
Y1335731D01*
X477356D01*
Y1335885D01*
X477510D01*
Y1336039D01*
X477664D01*
Y1336194D01*
X477819D01*
Y1336348D01*
X477973D01*
Y1336502D01*
X478127D01*
Y1336656D01*
X478282D01*
Y1336811D01*
X478590D01*
Y1336965D01*
X478744D01*
Y1337119D01*
X479053D01*
Y1337274D01*
X479207D01*
Y1337428D01*
X479516D01*
Y1337582D01*
X479824D01*
Y1337736D01*
X480133D01*
Y1337891D01*
X480287D01*
Y1338045D01*
X480596D01*
Y1338199D01*
X481059D01*
Y1338353D01*
X481522D01*
Y1338508D01*
X481830D01*
Y1338662D01*
X482293D01*
Y1338508D01*
D02*
G37*
G36*
X481367Y1341285D02*
X481522D01*
Y1340822D01*
X481676D01*
Y1340359D01*
X481830D01*
Y1339897D01*
X481367D01*
Y1339742D01*
X480905D01*
Y1339588D01*
X480596D01*
Y1339434D01*
X480133D01*
Y1339279D01*
X479824D01*
Y1339125D01*
X479516D01*
Y1338971D01*
X479207D01*
Y1338816D01*
X478899D01*
Y1338662D01*
X478744D01*
Y1338508D01*
X478436D01*
Y1338353D01*
X478127D01*
Y1338199D01*
X477973D01*
Y1338045D01*
X477664D01*
Y1337891D01*
X477510D01*
Y1337736D01*
X477356D01*
Y1337582D01*
X477201D01*
Y1337428D01*
X476893D01*
Y1337274D01*
X476739D01*
Y1337119D01*
X476584D01*
Y1336965D01*
X476430D01*
Y1336811D01*
X476276D01*
Y1336656D01*
X476121D01*
Y1336502D01*
X475967D01*
Y1336348D01*
X475813D01*
Y1336194D01*
X475659D01*
Y1336039D01*
X475504D01*
Y1335885D01*
X475350D01*
Y1335576D01*
X475196D01*
Y1335422D01*
X475041D01*
Y1335268D01*
X474887D01*
Y1335113D01*
X474733D01*
Y1334805D01*
X474579D01*
Y1334651D01*
X474424D01*
Y1334342D01*
X474270D01*
Y1334033D01*
X474116D01*
Y1333879D01*
X473961D01*
Y1333571D01*
X473807D01*
Y1333108D01*
X473653D01*
Y1332799D01*
X473498D01*
Y1332491D01*
X473344D01*
Y1332028D01*
X473190D01*
Y1331565D01*
X473036D01*
Y1330948D01*
X472881D01*
Y1330330D01*
X472727D01*
Y1329250D01*
X472573D01*
Y1329096D01*
Y1328942D01*
Y1328325D01*
X470721D01*
Y1329713D01*
X470876D01*
Y1330793D01*
X471030D01*
Y1331410D01*
X471184D01*
Y1332028D01*
X471338D01*
Y1332491D01*
X471493D01*
Y1332953D01*
X471647D01*
Y1333416D01*
X471801D01*
Y1333725D01*
X471956D01*
Y1334033D01*
X472110D01*
Y1334342D01*
X472264D01*
Y1334651D01*
X472419D01*
Y1334959D01*
X472573D01*
Y1335113D01*
X472727D01*
Y1335422D01*
X472881D01*
Y1335576D01*
X473036D01*
Y1335885D01*
X473190D01*
Y1336039D01*
X473344D01*
Y1336348D01*
X473498D01*
Y1336502D01*
X473653D01*
Y1336656D01*
X473807D01*
Y1336965D01*
X473961D01*
Y1337119D01*
X474116D01*
Y1337274D01*
X474270D01*
Y1337428D01*
X474424D01*
Y1337582D01*
X474579D01*
Y1337736D01*
X474733D01*
Y1337891D01*
X474887D01*
Y1338045D01*
X475041D01*
Y1338199D01*
X475196D01*
Y1338353D01*
X475350D01*
Y1338508D01*
X475659D01*
Y1338662D01*
X475813D01*
Y1338816D01*
X475967D01*
Y1338971D01*
X476121D01*
Y1339125D01*
X476430D01*
Y1339279D01*
X476584D01*
Y1339434D01*
X476739D01*
Y1339588D01*
X477047D01*
Y1339742D01*
X477201D01*
Y1339897D01*
X477510D01*
Y1340051D01*
X477819D01*
Y1340205D01*
X478127D01*
Y1340359D01*
X478282D01*
Y1340514D01*
X478590D01*
Y1340668D01*
X478899D01*
Y1340822D01*
X479207D01*
Y1340977D01*
X479670D01*
Y1341131D01*
X479979D01*
Y1341285D01*
X480442D01*
Y1341439D01*
X480905D01*
Y1341594D01*
X481367D01*
Y1341285D01*
D02*
G37*
G36*
X538455Y1322770D02*
X538301D01*
Y1322307D01*
X541695D01*
Y1327090D01*
X542004D01*
Y1322307D01*
X542467D01*
Y1322462D01*
X542775D01*
Y1322616D01*
X543084D01*
Y1322770D01*
X543238D01*
Y1322924D01*
X543547D01*
Y1323079D01*
X543855D01*
Y1323233D01*
X544164D01*
Y1323387D01*
X544472D01*
Y1323542D01*
X544781D01*
Y1323696D01*
X545090D01*
Y1323850D01*
X545398D01*
Y1324005D01*
X545707D01*
Y1324159D01*
X546015D01*
Y1324313D01*
X546324D01*
Y1324467D01*
X546632D01*
Y1324622D01*
X546941D01*
Y1324776D01*
X547250D01*
Y1324930D01*
X547558D01*
Y1325085D01*
X547867D01*
Y1325239D01*
X548175D01*
Y1325393D01*
X548484D01*
Y1325547D01*
X548793D01*
Y1325702D01*
X549101D01*
Y1325856D01*
X549410D01*
Y1326010D01*
X549718D01*
Y1326165D01*
X550027D01*
Y1326319D01*
X550336D01*
Y1326473D01*
X550644D01*
Y1326627D01*
X550953D01*
Y1326782D01*
X551107D01*
Y1326936D01*
X551570D01*
Y1322307D01*
X555273D01*
Y1324313D01*
X570393D01*
Y1320456D01*
X555273D01*
Y1321999D01*
X551570D01*
Y1317216D01*
X551416D01*
Y1317370D01*
X551107D01*
Y1317524D01*
X550798D01*
Y1317679D01*
X550490D01*
Y1317833D01*
X550336D01*
Y1317987D01*
X550027D01*
Y1318141D01*
X549718D01*
Y1318296D01*
X549410D01*
Y1318450D01*
X549101D01*
Y1318604D01*
X548793D01*
Y1318759D01*
X548484D01*
Y1318913D01*
X548175D01*
Y1319067D01*
X547867D01*
Y1319221D01*
X547558D01*
Y1319376D01*
X547250D01*
Y1319530D01*
X546941D01*
Y1319684D01*
X546632D01*
Y1319839D01*
X546324D01*
Y1319993D01*
X546015D01*
Y1320147D01*
X545707D01*
Y1320302D01*
X545398D01*
Y1320456D01*
X545090D01*
Y1320610D01*
X544781D01*
Y1320764D01*
X544472D01*
Y1320919D01*
X544164D01*
Y1321073D01*
X543855D01*
Y1321227D01*
X543547D01*
Y1321382D01*
X543238D01*
Y1321536D01*
X542929D01*
Y1321690D01*
X542621D01*
Y1321844D01*
X542312D01*
Y1321999D01*
X542158D01*
Y1322153D01*
X542004D01*
Y1317061D01*
X541695D01*
Y1321999D01*
X538455D01*
Y1310118D01*
X533209D01*
Y1309964D01*
X532746D01*
Y1328170D01*
X532592D01*
Y1328325D01*
X532283D01*
Y1328170D01*
X531512D01*
Y1328016D01*
X531049D01*
Y1327862D01*
X530741D01*
Y1327708D01*
X530432D01*
Y1327553D01*
X530278D01*
Y1327399D01*
X529969D01*
Y1327245D01*
X529815D01*
Y1327090D01*
X529660D01*
Y1326936D01*
X529506D01*
Y1326782D01*
X529352D01*
Y1326627D01*
X529198D01*
Y1326473D01*
X529043D01*
Y1326319D01*
X528889D01*
Y1326165D01*
X528735D01*
Y1326010D01*
X528581D01*
Y1325856D01*
X528426D01*
Y1325547D01*
X528272D01*
Y1325393D01*
X528118D01*
Y1325239D01*
X527963D01*
Y1325085D01*
X527809D01*
Y1324930D01*
X527655D01*
Y1324776D01*
X527500D01*
Y1324467D01*
X527346D01*
Y1324313D01*
X527192D01*
Y1324159D01*
X527038D01*
Y1324005D01*
X526883D01*
Y1323850D01*
X526729D01*
Y1323696D01*
X526575D01*
Y1323387D01*
X526420D01*
Y1323233D01*
X526266D01*
Y1323079D01*
X526112D01*
Y1322924D01*
X525957D01*
Y1322770D01*
X525803D01*
Y1322616D01*
X525649D01*
Y1322307D01*
X525495D01*
Y1322153D01*
X525340D01*
Y1321999D01*
X525186D01*
Y1321844D01*
X525032D01*
Y1321690D01*
X524878D01*
Y1321536D01*
X524723D01*
Y1321227D01*
X524569D01*
Y1321073D01*
X524415D01*
Y1320919D01*
X524260D01*
Y1320764D01*
X524106D01*
Y1320610D01*
X523952D01*
Y1320456D01*
X523797D01*
Y1320147D01*
X523643D01*
Y1319993D01*
X523489D01*
Y1319839D01*
X523335D01*
Y1319684D01*
X523180D01*
Y1319530D01*
X523026D01*
Y1319376D01*
X522872D01*
Y1319067D01*
X522717D01*
Y1318913D01*
X522563D01*
Y1318759D01*
X522409D01*
Y1318604D01*
X522254D01*
Y1318450D01*
X522100D01*
Y1318296D01*
X521946D01*
Y1317987D01*
X521792D01*
Y1317833D01*
X521637D01*
Y1317679D01*
X521483D01*
Y1317524D01*
X521329D01*
Y1317370D01*
X521175D01*
Y1317216D01*
X521020D01*
Y1317061D01*
X520866D01*
Y1316753D01*
X520712D01*
Y1316599D01*
X520557D01*
Y1316444D01*
X520403D01*
Y1316290D01*
X520249D01*
Y1316136D01*
X520094D01*
Y1315827D01*
X519940D01*
Y1315673D01*
X519786D01*
Y1315518D01*
X519632D01*
Y1315364D01*
X519477D01*
Y1315210D01*
X519323D01*
Y1315056D01*
X519169D01*
Y1314901D01*
X519014D01*
Y1314593D01*
X518860D01*
Y1314438D01*
X518706D01*
Y1314284D01*
X518551D01*
Y1314130D01*
X518397D01*
Y1313976D01*
X518243D01*
Y1313667D01*
X518089D01*
Y1313513D01*
X517934D01*
Y1313358D01*
X517780D01*
Y1313204D01*
X517626D01*
Y1313050D01*
X517472D01*
Y1312896D01*
X517317D01*
Y1312741D01*
X517163D01*
Y1312587D01*
X517009D01*
Y1312433D01*
X516854D01*
Y1312278D01*
X516700D01*
Y1312124D01*
X516546D01*
Y1311970D01*
X516391D01*
Y1311815D01*
X516237D01*
Y1311661D01*
X515929D01*
Y1311507D01*
X515774D01*
Y1311353D01*
X515466D01*
Y1311198D01*
X515157D01*
Y1311044D01*
X514849D01*
Y1310890D01*
X514540D01*
Y1310735D01*
X514231D01*
Y1310581D01*
X513769D01*
Y1310427D01*
X513151D01*
Y1310273D01*
X512380D01*
Y1310118D01*
X505128D01*
Y1309964D01*
X504665D01*
Y1310118D01*
X504511D01*
Y1333725D01*
X510220D01*
Y1315673D01*
X511454D01*
Y1315827D01*
X511917D01*
Y1315981D01*
X512226D01*
Y1316136D01*
X512534D01*
Y1316290D01*
X512688D01*
Y1316444D01*
X512997D01*
Y1316599D01*
X513151D01*
Y1316753D01*
X513306D01*
Y1316907D01*
X513460D01*
Y1317061D01*
X513614D01*
Y1317216D01*
X513769D01*
Y1317370D01*
X513923D01*
Y1317524D01*
X514077D01*
Y1317679D01*
X514231D01*
Y1317833D01*
X514386D01*
Y1317987D01*
X514540D01*
Y1318296D01*
X514694D01*
Y1318450D01*
X514849D01*
Y1318604D01*
X515003D01*
Y1318759D01*
X515157D01*
Y1318913D01*
X515311D01*
Y1319067D01*
X515466D01*
Y1319376D01*
X515620D01*
Y1319530D01*
X515774D01*
Y1319684D01*
X515929D01*
Y1319839D01*
X516083D01*
Y1319993D01*
X516237D01*
Y1320147D01*
X516391D01*
Y1320302D01*
X516546D01*
Y1320610D01*
X516700D01*
Y1320764D01*
X516854D01*
Y1320919D01*
X517009D01*
Y1321073D01*
X517163D01*
Y1321227D01*
X517317D01*
Y1321382D01*
X517472D01*
Y1321690D01*
X517626D01*
Y1321844D01*
X517780D01*
Y1321999D01*
X517934D01*
Y1322153D01*
X518089D01*
Y1322307D01*
X518243D01*
Y1322462D01*
X518397D01*
Y1322616D01*
X518551D01*
Y1322924D01*
X518706D01*
Y1323079D01*
X518860D01*
Y1323233D01*
X519014D01*
Y1323387D01*
X519169D01*
Y1323542D01*
X519323D01*
Y1323696D01*
X519477D01*
Y1323850D01*
X519632D01*
Y1324159D01*
X519786D01*
Y1324313D01*
X519940D01*
Y1324467D01*
X520094D01*
Y1324622D01*
X520249D01*
Y1324776D01*
X520403D01*
Y1324930D01*
X520557D01*
Y1325085D01*
X520712D01*
Y1325393D01*
X520866D01*
Y1325547D01*
X521020D01*
Y1325702D01*
X521175D01*
Y1325856D01*
X521329D01*
Y1326010D01*
X521483D01*
Y1326319D01*
X521637D01*
Y1326473D01*
X521792D01*
Y1326627D01*
X521946D01*
Y1326782D01*
X522100D01*
Y1326936D01*
X522254D01*
Y1327090D01*
X522409D01*
Y1327245D01*
X522563D01*
Y1327399D01*
X522717D01*
Y1327708D01*
X522872D01*
Y1327862D01*
X523026D01*
Y1328016D01*
X523180D01*
Y1328170D01*
X523335D01*
Y1328325D01*
X523489D01*
Y1328479D01*
X523643D01*
Y1328788D01*
X523797D01*
Y1328942D01*
X523952D01*
Y1329096D01*
X524106D01*
Y1329250D01*
X524260D01*
Y1329405D01*
X524415D01*
Y1329559D01*
X524569D01*
Y1329713D01*
X524723D01*
Y1330022D01*
X524878D01*
Y1330176D01*
X525032D01*
Y1330330D01*
X525186D01*
Y1330485D01*
X525340D01*
Y1330639D01*
X525495D01*
Y1330793D01*
X525649D01*
Y1330948D01*
X525803D01*
Y1331102D01*
X525957D01*
Y1331256D01*
X526112D01*
Y1331410D01*
X526266D01*
Y1331565D01*
X526420D01*
Y1331719D01*
X526575D01*
Y1331873D01*
X526729D01*
Y1332028D01*
X527038D01*
Y1332182D01*
X527192D01*
Y1332336D01*
X527346D01*
Y1332491D01*
X527655D01*
Y1332645D01*
X527809D01*
Y1332799D01*
X528118D01*
Y1332953D01*
X528581D01*
Y1333108D01*
X528889D01*
Y1333262D01*
X529198D01*
Y1333416D01*
X529815D01*
Y1333571D01*
X530741D01*
Y1333725D01*
X538455D01*
Y1322770D01*
D02*
G37*
G36*
X572862Y1334033D02*
X573788D01*
Y1333879D01*
X574405D01*
Y1333725D01*
X574868D01*
Y1333571D01*
X575176D01*
Y1333416D01*
X575639D01*
Y1333262D01*
X575794D01*
Y1333108D01*
X576102D01*
Y1332953D01*
X576256D01*
Y1332799D01*
X576411D01*
Y1332645D01*
X576719D01*
Y1332491D01*
X576874D01*
Y1332336D01*
X577028D01*
Y1332028D01*
X577182D01*
Y1331873D01*
X577337D01*
Y1331719D01*
X577491D01*
Y1331410D01*
X577645D01*
Y1331102D01*
X577799D01*
Y1330639D01*
X577954D01*
Y1330176D01*
X578108D01*
Y1329096D01*
X578262D01*
Y1315673D01*
X578108D01*
Y1314593D01*
X577954D01*
Y1314130D01*
X577799D01*
Y1313667D01*
X577645D01*
Y1313358D01*
X577491D01*
Y1313050D01*
X577337D01*
Y1312896D01*
X577182D01*
Y1312587D01*
X577028D01*
Y1312433D01*
X576874D01*
Y1312278D01*
X576719D01*
Y1312124D01*
X576565D01*
Y1311970D01*
X576411D01*
Y1311815D01*
X576102D01*
Y1311661D01*
X575948D01*
Y1311507D01*
X575639D01*
Y1311353D01*
X575331D01*
Y1311198D01*
X575022D01*
Y1311044D01*
X574559D01*
Y1310890D01*
X573942D01*
Y1310735D01*
X573325D01*
Y1310581D01*
X571782D01*
Y1310427D01*
X544010D01*
Y1315981D01*
X571319D01*
Y1316136D01*
X571782D01*
Y1316290D01*
X572091D01*
Y1316444D01*
X572245D01*
Y1316753D01*
X572399D01*
Y1327862D01*
X572245D01*
Y1328170D01*
X572091D01*
Y1328325D01*
X571936D01*
Y1328479D01*
X571782D01*
Y1328633D01*
X544164D01*
Y1328942D01*
X544010D01*
Y1334033D01*
X544164D01*
Y1334188D01*
X572862D01*
Y1334033D01*
D02*
G37*
G36*
X460229Y1333571D02*
X461155D01*
Y1333416D01*
X461772D01*
Y1333262D01*
X462081D01*
Y1333108D01*
X462544D01*
Y1332953D01*
X462852D01*
Y1332799D01*
X463161D01*
Y1332645D01*
X463315D01*
Y1332491D01*
X463624D01*
Y1332336D01*
X463778D01*
Y1332182D01*
X463932D01*
Y1332028D01*
X464087D01*
Y1331873D01*
X464241D01*
Y1331719D01*
X464395D01*
Y1331565D01*
X464550D01*
Y1331256D01*
X464704D01*
Y1330948D01*
X464858D01*
Y1330639D01*
X465013D01*
Y1330330D01*
X465167D01*
Y1329868D01*
X465321D01*
Y1328942D01*
X465475D01*
Y1314901D01*
X465321D01*
Y1313976D01*
X465167D01*
Y1313513D01*
X465013D01*
Y1313204D01*
X464858D01*
Y1312896D01*
X464704D01*
Y1312587D01*
X464550D01*
Y1312433D01*
X464395D01*
Y1312124D01*
X464241D01*
Y1311970D01*
X464087D01*
Y1311815D01*
X463932D01*
Y1311661D01*
X463778D01*
Y1311507D01*
X463624D01*
Y1311353D01*
X463315D01*
Y1311198D01*
X463161D01*
Y1311044D01*
X462852D01*
Y1310890D01*
X462544D01*
Y1310735D01*
X462235D01*
Y1310581D01*
X461772D01*
Y1310427D01*
X461155D01*
Y1310273D01*
X460229D01*
Y1310118D01*
X431223D01*
Y1315518D01*
X432611D01*
Y1315673D01*
X458995D01*
Y1315827D01*
X459304D01*
Y1315981D01*
X459458D01*
Y1316290D01*
X459612D01*
Y1327553D01*
X459458D01*
Y1327862D01*
X459304D01*
Y1328016D01*
X459149D01*
Y1328170D01*
X431377D01*
Y1328325D01*
X431223D01*
Y1333725D01*
X460229D01*
Y1333571D01*
D02*
G37*
G36*
X483836Y1334496D02*
X483990D01*
Y1334033D01*
X484145D01*
Y1333571D01*
X484299D01*
Y1333108D01*
X500191D01*
Y1327553D01*
X486305D01*
Y1312278D01*
Y1312124D01*
Y1309347D01*
X480596D01*
Y1309501D01*
X480442D01*
Y1328170D01*
X478590D01*
Y1329559D01*
X478744D01*
Y1330176D01*
X478899D01*
Y1330639D01*
X479053D01*
Y1330948D01*
X479207D01*
Y1331256D01*
X479362D01*
Y1331565D01*
X479516D01*
Y1331873D01*
X479670D01*
Y1332028D01*
X479824D01*
Y1332336D01*
X479979D01*
Y1332491D01*
X480133D01*
Y1332645D01*
X480287D01*
Y1332799D01*
X480442D01*
Y1332953D01*
X480596D01*
Y1333108D01*
X480750D01*
Y1333262D01*
X480905D01*
Y1333416D01*
X481059D01*
Y1333571D01*
X481367D01*
Y1333725D01*
X481522D01*
Y1333879D01*
X481830D01*
Y1334033D01*
X481984D01*
Y1334188D01*
X482293D01*
Y1334342D01*
X482602D01*
Y1334496D01*
X482910D01*
Y1334651D01*
X483373D01*
Y1334805D01*
X483836D01*
Y1334496D01*
D02*
G37*
D16*
X562843Y1296442D02*
X565509Y1299108D01*
X570840D01*
X573506Y1296442D01*
Y1285779D01*
X570840Y1283113D01*
X565509D01*
X562843Y1285779D01*
Y1291111D01*
X568175D01*
X557511Y1293777D02*
Y1283113D01*
Y1288445D01*
X554846Y1291111D01*
X552180Y1293777D01*
X549514D01*
X538851Y1283113D02*
X533519D01*
X530853Y1285779D01*
Y1291111D01*
X533519Y1293777D01*
X538851D01*
X541517Y1291111D01*
Y1285779D01*
X538851Y1283113D01*
X525522Y1293777D02*
Y1285779D01*
X522856Y1283113D01*
X514859D01*
Y1293777D01*
X509527Y1277782D02*
Y1293777D01*
X501530D01*
X498864Y1291111D01*
Y1285779D01*
X501530Y1283113D01*
X509527D01*
X477537Y1296442D02*
X474871Y1299108D01*
X469540D01*
X466874Y1296442D01*
Y1293777D01*
X469540Y1291111D01*
X466874Y1288445D01*
Y1285779D01*
X469540Y1283113D01*
X474871D01*
X477537Y1285779D01*
Y1288445D01*
X474871Y1291111D01*
X477537Y1293777D01*
Y1296442D01*
X474871Y1291111D02*
X469540D01*
D17*
X398180Y1169670D02*
D03*
X529610Y1062990D02*
D03*
X610320Y1361440D02*
D03*
X355960Y1363810D02*
D03*
X396910Y975360D02*
D03*
D18*
X323180Y1169670D02*
D03*
X400960Y1363810D02*
D03*
X655320Y1361440D02*
D03*
X321910Y975360D02*
D03*
D29*
X638810Y1062990D02*
D03*
D30*
X584210Y1195590D02*
D03*
Y894090D02*
D03*
D31*
X552040Y638810D02*
D03*
X662040D02*
D03*
X503320Y518160D02*
D03*
X525780D02*
D03*
X548320D02*
D03*
X613410Y562210D02*
D03*
Y539750D02*
D03*
Y517210D02*
D03*
X355600Y695550D02*
D03*
Y805550D02*
D03*
X454660Y696820D02*
D03*
Y806820D02*
D03*
X372110Y634100D02*
D03*
X421640Y521600D02*
D03*
X372110Y524100D02*
D03*
X421640Y631600D02*
D03*
D32*
X511810Y775540D02*
D03*
X580390Y780620D02*
D03*
D33*
X511810Y754380D02*
D03*
Y735540D02*
D03*
X580390Y759460D02*
D03*
Y740620D02*
D03*
D34*
X706990Y781920D02*
D03*
X656990Y756920D02*
D03*
D35*
X706990Y731920D02*
D03*
D36*
X302260Y601980D02*
D03*
D37*
Y531180D02*
D03*
Y566580D02*
D03*
D38*
X355960Y1199910D02*
Y1403710D01*
X323180Y976630D02*
Y1169670D01*
X398815Y977265D02*
Y1169035D01*
X562610Y1062990D02*
X657860Y1158240D01*
X396910Y975360D02*
X398815Y977265D01*
X529610Y1062990D02*
X562610D01*
X657860Y1158240D02*
Y1358900D01*
X655320Y1361440D02*
X657860Y1358900D01*
X398553Y1361403D02*
X400960Y1363810D01*
X398553Y1210003D02*
Y1361403D01*
X398180Y1169670D02*
Y1209630D01*
X398553Y1210003D01*
X398180Y1169670D02*
X398815Y1169035D01*
X398180Y1169670D02*
X549360D01*
X575280Y1195590D01*
X584210D01*
X345354Y1189304D02*
X355960Y1199910D01*
X342814Y1189304D02*
X345354D01*
X323180Y1169670D02*
X342814Y1189304D01*
X529610Y1004550D02*
Y1062990D01*
X610320Y1361440D02*
Y1398820D01*
X370840Y1418590D02*
X590550D01*
X610320Y1398820D01*
X355960Y1403710D02*
X370840Y1418590D01*
X299720Y953170D02*
X323180Y976630D01*
X372110Y524100D02*
Y577850D01*
X490323D01*
X313530D02*
X372110D01*
X499110Y586637D02*
Y598170D01*
X490323Y577850D02*
X499110Y586637D01*
X490323Y666750D02*
X499110Y657963D01*
Y598170D02*
Y657963D01*
X418237Y666750D02*
X490323D01*
X552040Y606957D02*
Y638810D01*
X499110Y598170D02*
X543253D01*
X552040Y606957D01*
X302260Y566580D02*
X313530Y577850D01*
X584210Y784440D02*
Y894090D01*
X580390Y780620D02*
X584210Y784440D01*
X656990Y756920D02*
Y935610D01*
X625145Y967455D02*
X656990Y935610D01*
X566705Y967455D02*
X625145D01*
X529610Y1004550D02*
X566705Y967455D01*
X355600Y845716D02*
X365533Y855649D01*
X355600Y805550D02*
Y845716D01*
X365533Y855649D02*
X396910D01*
Y820120D02*
Y855649D01*
Y975360D01*
Y820120D02*
X414020Y803010D01*
X450850D01*
X454660Y806820D01*
X406400Y678587D02*
Y743053D01*
X308507Y751840D02*
X397613D01*
X511810Y775540D02*
X516890Y780620D01*
X492160Y805550D02*
X492390D01*
X490890Y806820D02*
X492160Y805550D01*
X299720Y760627D02*
X308507Y751840D01*
X454660Y806820D02*
X490890D01*
X492390Y805550D02*
X511810Y786130D01*
Y775540D02*
Y786130D01*
X516890Y780620D02*
X580390D01*
X397613Y751840D02*
X406400Y743053D01*
X299720Y760627D02*
Y953170D01*
X406400Y678587D02*
X418237Y666750D01*
D39*
X454660Y696820D02*
Y740410D01*
X468630Y754380D01*
X318770Y601980D02*
X350890Y634100D01*
X302260Y601980D02*
X318770D01*
X350890Y634100D02*
X372110D01*
X278130Y555310D02*
X302260Y531180D01*
X278130Y555310D02*
Y618080D01*
X355600Y695550D01*
X302260Y531180D02*
X335600Y497840D01*
X395986D01*
X419746Y521600D01*
X683260Y690897D02*
Y1018540D01*
X580390Y740620D02*
X594360D01*
X603732Y686210D02*
X678574D01*
X599046Y690897D02*
X603732Y686210D01*
X594360Y740620D02*
X599046Y735934D01*
Y690897D02*
Y735934D01*
X678574Y686210D02*
X683260Y690897D01*
X638810Y1062990D02*
X683260Y1018540D01*
X525780Y518160D02*
X540770Y503170D01*
X619226D01*
X662040Y545984D01*
Y638810D01*
X706990Y683760D01*
Y731920D01*
X613410Y517210D02*
X627450Y531250D01*
Y583906D01*
X492760Y718596D02*
X627450Y583906D01*
X492760Y718596D02*
Y754380D01*
X511810D01*
X419746Y521600D02*
X497985D01*
X501426Y518160D01*
X503320D01*
X547370Y562210D01*
X613410D01*
X372110Y634100D02*
X373360Y632850D01*
X420390D01*
X421640Y631600D01*
X548320Y518160D02*
X569910Y539750D01*
X613410D01*
X556470Y735540D02*
X580390Y759460D01*
X511810Y735540D02*
X556470D01*
X468630Y754380D02*
X492760D01*
M02*
