G04*
G04 #@! TF.GenerationSoftware,Altium Limited,Altium Designer,23.0.1 (38)*
G04*
G04 Layer_Color=8388736*
%FSLAX44Y44*%
%MOMM*%
G71*
G04*
G04 #@! TF.SameCoordinates,35DA4C4B-C9ED-44D6-BC94-0C2FA2B5732E*
G04*
G04*
G04 #@! TF.FilePolarity,Negative*
G04*
G01*
G75*
%ADD17C,2.5000*%
%ADD18R,2.5000X2.5000*%
%ADD19R,2.7032X2.7032*%
%ADD20C,2.7032*%
%ADD21C,5.0032*%
%ADD22C,1.7032*%
%ADD23R,1.2532X1.2532*%
%ADD24C,1.2532*%
%ADD25C,1.8532*%
%ADD26R,1.8532X1.8532*%
G04:AMPARAMS|DCode=27|XSize=1.6032mm|YSize=1.6032mm|CornerRadius=0.1506mm|HoleSize=0mm|Usage=FLASHONLY|Rotation=0.000|XOffset=0mm|YOffset=0mm|HoleType=Round|Shape=RoundedRectangle|*
%AMROUNDEDRECTD27*
21,1,1.6032,1.3020,0,0,0.0*
21,1,1.3020,1.6032,0,0,0.0*
1,1,0.3012,0.6510,-0.6510*
1,1,0.3012,-0.6510,-0.6510*
1,1,0.3012,-0.6510,0.6510*
1,1,0.3012,0.6510,0.6510*
%
%ADD27ROUNDEDRECTD27*%
%ADD28C,1.6032*%
D17*
X398180Y1169670D02*
D03*
X610320Y1361440D02*
D03*
X355960Y1363810D02*
D03*
X396910Y975360D02*
D03*
D18*
X323180Y1169670D02*
D03*
X400960Y1363810D02*
D03*
X655320Y1361440D02*
D03*
X321910Y975360D02*
D03*
D19*
X638810Y1062990D02*
D03*
D20*
X529610D02*
D03*
D21*
X584210Y1195590D02*
D03*
Y894090D02*
D03*
D22*
X552040Y638810D02*
D03*
X662040D02*
D03*
X503320Y518160D02*
D03*
X525780D02*
D03*
X548320D02*
D03*
X613410Y562210D02*
D03*
Y539750D02*
D03*
Y517210D02*
D03*
X355600Y695550D02*
D03*
Y805550D02*
D03*
X454660Y696820D02*
D03*
Y806820D02*
D03*
X372110Y634100D02*
D03*
X421640Y521600D02*
D03*
X372110Y524100D02*
D03*
X421640Y631600D02*
D03*
D23*
X511810Y775540D02*
D03*
X580390Y780620D02*
D03*
D24*
X511810Y754380D02*
D03*
Y735540D02*
D03*
X580390Y759460D02*
D03*
Y740620D02*
D03*
D25*
X706990Y781920D02*
D03*
X656990Y756920D02*
D03*
D26*
X706990Y731920D02*
D03*
D27*
X302260Y601980D02*
D03*
D28*
Y531180D02*
D03*
Y566580D02*
D03*
M02*
