G04*
G04 #@! TF.GenerationSoftware,Altium Limited,Altium Designer,23.0.1 (38)*
G04*
G04 Layer_Physical_Order=1*
G04 Layer_Color=255*
%FSLAX44Y44*%
%MOMM*%
G71*
G04*
G04 #@! TF.SameCoordinates,35DA4C4B-C9ED-44D6-BC94-0C2FA2B5732E*
G04*
G04*
G04 #@! TF.FilePolarity,Positive*
G04*
G01*
G75*
%ADD17C,2.5000*%
%ADD18R,2.5000X2.5000*%
%ADD29R,2.5000X2.5000*%
%ADD30C,4.8000*%
%ADD31C,1.5000*%
%ADD32R,1.0500X1.0500*%
%ADD33C,1.0500*%
%ADD34C,1.6500*%
%ADD35R,1.6500X1.6500*%
G04:AMPARAMS|DCode=36|XSize=1.4mm|YSize=1.4mm|CornerRadius=0.049mm|HoleSize=0mm|Usage=FLASHONLY|Rotation=0.000|XOffset=0mm|YOffset=0mm|HoleType=Round|Shape=RoundedRectangle|*
%AMROUNDEDRECTD36*
21,1,1.4000,1.3020,0,0,0.0*
21,1,1.3020,1.4000,0,0,0.0*
1,1,0.0980,0.6510,-0.6510*
1,1,0.0980,-0.6510,-0.6510*
1,1,0.0980,-0.6510,0.6510*
1,1,0.0980,0.6510,0.6510*
%
%ADD36ROUNDEDRECTD36*%
%ADD37C,1.4000*%
D17*
X398180Y1169670D02*
D03*
X529610Y1062990D02*
D03*
X610320Y1361440D02*
D03*
X355960Y1363810D02*
D03*
X396910Y975360D02*
D03*
D18*
X323180Y1169670D02*
D03*
X400960Y1363810D02*
D03*
X655320Y1361440D02*
D03*
X321910Y975360D02*
D03*
D29*
X638810Y1062990D02*
D03*
D30*
X584210Y1195590D02*
D03*
Y894090D02*
D03*
D31*
X552040Y638810D02*
D03*
X662040D02*
D03*
X503320Y518160D02*
D03*
X525780D02*
D03*
X548320D02*
D03*
X613410Y562210D02*
D03*
Y539750D02*
D03*
Y517210D02*
D03*
X355600Y695550D02*
D03*
Y805550D02*
D03*
X454660Y696820D02*
D03*
Y806820D02*
D03*
X372110Y634100D02*
D03*
X421640Y521600D02*
D03*
X372110Y524100D02*
D03*
X421640Y631600D02*
D03*
D32*
X511810Y775540D02*
D03*
X580390Y780620D02*
D03*
D33*
X511810Y754380D02*
D03*
Y735540D02*
D03*
X580390Y759460D02*
D03*
Y740620D02*
D03*
D34*
X706990Y781920D02*
D03*
X656990Y756920D02*
D03*
D35*
X706990Y731920D02*
D03*
D36*
X302260Y601980D02*
D03*
D37*
Y531180D02*
D03*
Y566580D02*
D03*
M02*
