G04*
G04 #@! TF.GenerationSoftware,Altium Limited,Altium Designer,23.0.1 (38)*
G04*
G04 Layer_Color=65535*
%FSLAX44Y44*%
%MOMM*%
G71*
G04*
G04 #@! TF.SameCoordinates,35DA4C4B-C9ED-44D6-BC94-0C2FA2B5732E*
G04*
G04*
G04 #@! TF.FilePolarity,Positive*
G04*
G01*
G75*
%ADD10C,0.1500*%
%ADD11C,1.2500*%
%ADD12C,0.2000*%
%ADD13C,0.2500*%
%ADD14C,0.2540*%
%ADD15C,0.1270*%
%ADD16C,0.1000*%
D10*
X443180Y1169670D02*
G03*
X443180Y1169670I-82500J0D01*
G01*
X441910Y975360D02*
G03*
X441910Y975360I-82500J0D01*
G01*
D11*
X739210Y1062990D02*
G03*
X739210Y1062990I-6250J0D01*
G01*
D12*
X699694Y978166D02*
G03*
X699694Y1111516I-115485J66675D01*
G01*
X468726Y1111514D02*
G03*
X468726Y978164I115485J-66675D01*
G01*
X625520Y1219441D02*
G03*
X584211Y1243291I-41309J-23850D01*
G01*
X584209D02*
G03*
X542900Y1219441I0J-47700D01*
G01*
Y870239D02*
G03*
X584209Y846389I41309J23850D01*
G01*
X584211D02*
G03*
X625520Y870239I0J47700D01*
G01*
X506441Y531511D02*
G03*
X545117Y531515I19339J-13352D01*
G01*
X626762Y559089D02*
G03*
X626765Y520413I-13352J-19339D01*
G01*
X498459Y735041D02*
G03*
X498455Y773717I13352J19339D01*
G01*
X567038Y740121D02*
G03*
X567035Y778797I13352J19339D01*
G01*
X730990Y731920D02*
G03*
X730990Y731920I-1000J0D01*
G01*
X313181Y542435D02*
G03*
X313181Y590725I-10920J24145D01*
G01*
X290430Y1128420D02*
Y1210920D01*
X625520Y1219441D02*
X699694Y1111516D01*
X468727Y1111514D02*
X542900Y1219441D01*
X468727Y978164D02*
X542900Y870239D01*
X625520D02*
X699694Y978166D01*
X582930Y626110D02*
Y651510D01*
Y626110D02*
X633730D01*
Y651510D01*
X582930D02*
X633730D01*
X506443Y531510D02*
X545117D01*
X626760Y520414D02*
Y559086D01*
X342900Y726440D02*
X368300D01*
Y777240D01*
X342900D02*
X368300D01*
X342900Y726440D02*
Y777240D01*
X441960Y727710D02*
X467360D01*
Y778510D01*
X441960D02*
X467360D01*
X441960Y727710D02*
Y778510D01*
X669820Y1337940D02*
Y1395440D01*
X595820D02*
X669820D01*
X595820Y1337940D02*
Y1395440D01*
Y1337940D02*
X669820D01*
X498460Y735043D02*
Y773717D01*
X415460Y1340310D02*
Y1397810D01*
X341460D02*
X415460D01*
X341460Y1340310D02*
Y1397810D01*
Y1340310D02*
X415460D01*
X567040Y740124D02*
Y778796D01*
X289160Y934110D02*
Y1016610D01*
X434340Y549910D02*
Y600710D01*
X408940Y549910D02*
X434340D01*
X408940D02*
Y600710D01*
X434340D01*
X289010Y543855D02*
Y589305D01*
X359410Y554990D02*
Y605790D01*
X384810D01*
Y554990D02*
Y605790D01*
X359410Y554990D02*
X384810D01*
D13*
X556530Y518160D02*
G03*
X556530Y518160I-1250J0D01*
G01*
X614660Y510250D02*
G03*
X614660Y510250I-1250J0D01*
G01*
X677820Y1361440D02*
G03*
X677820Y1361440I-1250J0D01*
G01*
X513060Y783880D02*
G03*
X513060Y783880I-1250J0D01*
G01*
X423460Y1363810D02*
G03*
X423460Y1363810I-1250J0D01*
G01*
X581640Y788960D02*
G03*
X581640Y788960I-1250J0D01*
G01*
X291260Y594830D02*
G03*
X291260Y594830I-1250J0D01*
G01*
D14*
X254000Y466090D02*
X751840D01*
X254000Y1464310D02*
X751840D01*
Y466090D02*
Y1464310D01*
X254000Y466090D02*
Y1464310D01*
X290068Y632963D02*
Y620267D01*
X292607Y617728D01*
X297686D01*
X300225Y620267D01*
Y632963D01*
X305303Y617728D02*
X310381D01*
X307842D01*
Y632963D01*
X305303Y630424D01*
X546100Y660400D02*
Y675635D01*
X553717D01*
X556257Y673096D01*
Y668018D01*
X553717Y665478D01*
X546100D01*
X551178D02*
X556257Y660400D01*
X571492Y675635D02*
X566413Y673096D01*
X561335Y668018D01*
Y662939D01*
X563874Y660400D01*
X568953D01*
X571492Y662939D01*
Y665478D01*
X568953Y668018D01*
X561335D01*
X641350Y801370D02*
Y816605D01*
X648968D01*
X651507Y814066D01*
Y808988D01*
X648968Y806448D01*
X641350D01*
X646428D02*
X651507Y801370D01*
X666742Y816605D02*
X656585D01*
Y808988D01*
X661663Y811527D01*
X664203D01*
X666742Y808988D01*
Y803909D01*
X664203Y801370D01*
X659124D01*
X656585Y803909D01*
X360680Y650240D02*
Y665475D01*
X368298D01*
X370837Y662936D01*
Y657858D01*
X368298Y655318D01*
X360680D01*
X365758D02*
X370837Y650240D01*
X383533D02*
Y665475D01*
X375915Y657858D01*
X386072D01*
X410210Y647700D02*
Y662935D01*
X417827D01*
X420367Y660396D01*
Y655318D01*
X417827Y652778D01*
X410210D01*
X415288D02*
X420367Y647700D01*
X425445Y660396D02*
X427984Y662935D01*
X433063D01*
X435602Y660396D01*
Y657857D01*
X433063Y655318D01*
X430523D01*
X433063D01*
X435602Y652778D01*
Y650239D01*
X433063Y647700D01*
X427984D01*
X425445Y650239D01*
X443230Y822960D02*
Y838195D01*
X450848D01*
X453387Y835656D01*
Y830577D01*
X450848Y828038D01*
X443230D01*
X448308D02*
X453387Y822960D01*
X468622D02*
X458465D01*
X468622Y833117D01*
Y835656D01*
X466083Y838195D01*
X461004D01*
X458465Y835656D01*
X344170Y821690D02*
Y836925D01*
X351787D01*
X354327Y834386D01*
Y829307D01*
X351787Y826768D01*
X344170D01*
X349248D02*
X354327Y821690D01*
X359405D02*
X364483D01*
X361944D01*
Y836925D01*
X359405Y834386D01*
X507489Y542797D02*
Y552954D01*
X504949Y555493D01*
X499871D01*
X497332Y552954D01*
Y542797D01*
X499871Y540258D01*
X504949D01*
X502410Y545336D02*
X507489Y540258D01*
X504949D02*
X507489Y542797D01*
X522724Y555493D02*
X512567D01*
Y547876D01*
X517645Y550415D01*
X520185D01*
X522724Y547876D01*
Y542797D01*
X520185Y540258D01*
X515106D01*
X512567Y542797D01*
X601469Y580897D02*
Y591054D01*
X598929Y593593D01*
X593851D01*
X591312Y591054D01*
Y580897D01*
X593851Y578358D01*
X598929D01*
X596390Y583436D02*
X601469Y578358D01*
X598929D02*
X601469Y580897D01*
X614165Y578358D02*
Y593593D01*
X606547Y585975D01*
X616704D01*
X462277Y1254759D02*
Y1264916D01*
X459738Y1267455D01*
X454659D01*
X452120Y1264916D01*
Y1254759D01*
X454659Y1252220D01*
X459738D01*
X457198Y1257298D02*
X462277Y1252220D01*
X459738D02*
X462277Y1254759D01*
X467355Y1264916D02*
X469894Y1267455D01*
X474973D01*
X477512Y1264916D01*
Y1262377D01*
X474973Y1259837D01*
X472433D01*
X474973D01*
X477512Y1257298D01*
Y1254759D01*
X474973Y1252220D01*
X469894D01*
X467355Y1254759D01*
X578609Y801623D02*
Y811780D01*
X576069Y814319D01*
X570991D01*
X568452Y811780D01*
Y801623D01*
X570991Y799084D01*
X576069D01*
X573530Y804162D02*
X578609Y799084D01*
X576069D02*
X578609Y801623D01*
X593844Y799084D02*
X583687D01*
X593844Y809241D01*
Y811780D01*
X591305Y814319D01*
X586226D01*
X583687Y811780D01*
X510029Y796543D02*
Y806700D01*
X507490Y809239D01*
X502411D01*
X499872Y806700D01*
Y796543D01*
X502411Y794004D01*
X507490D01*
X504950Y799082D02*
X510029Y794004D01*
X507490D02*
X510029Y796543D01*
X515107Y794004D02*
X520185D01*
X517646D01*
Y809239D01*
X515107Y806700D01*
X606549Y1420363D02*
X601470D01*
X604010D01*
Y1407667D01*
X601470Y1405128D01*
X598931D01*
X596392Y1407667D01*
X621784Y1405128D02*
X611627D01*
X621784Y1415285D01*
Y1417824D01*
X619245Y1420363D01*
X614166D01*
X611627Y1417824D01*
X352041Y1422649D02*
X346962D01*
X349501D01*
Y1409953D01*
X346962Y1407414D01*
X344423D01*
X341884Y1409953D01*
X357119Y1407414D02*
X362197D01*
X359658D01*
Y1422649D01*
X357119Y1420110D01*
X287525Y1080258D02*
X284986Y1082797D01*
X279907D01*
X277368Y1080258D01*
Y1070101D01*
X279907Y1067562D01*
X284986D01*
X287525Y1070101D01*
X302760Y1067562D02*
X292603D01*
X302760Y1077719D01*
Y1080258D01*
X300221Y1082797D01*
X295142D01*
X292603Y1080258D01*
X288795Y1274568D02*
X286255Y1277107D01*
X281177D01*
X278638Y1274568D01*
Y1264411D01*
X281177Y1261872D01*
X286255D01*
X288795Y1264411D01*
X293873Y1261872D02*
X298951D01*
X296412D01*
Y1277107D01*
X293873Y1274568D01*
D15*
X717990Y722870D02*
X722490D01*
Y744220D01*
X717990D02*
X722490D01*
X717990Y744120D02*
Y744220D01*
Y769620D01*
X722490D01*
Y790970D01*
X717990D02*
X722490D01*
X656890Y722870D02*
X693990D01*
X641490Y738220D02*
X656890Y722870D01*
X641490Y738220D02*
Y776920D01*
X655490Y790970D01*
X697490D01*
D16*
X647348Y1418949D02*
X644016D01*
X642350Y1417283D01*
Y1410618D01*
X644016Y1408952D01*
X647348D01*
X649015Y1410618D01*
Y1417283D01*
X647348Y1418949D01*
X652347Y1415617D02*
Y1410618D01*
X654013Y1408952D01*
X659011D01*
Y1415617D01*
X664010Y1417283D02*
Y1415617D01*
X662344D01*
X665676D01*
X664010D01*
Y1410618D01*
X665676Y1408952D01*
X670674Y1405620D02*
Y1415617D01*
X675673D01*
X677339Y1413951D01*
Y1410618D01*
X675673Y1408952D01*
X670674D01*
X680671Y1415617D02*
Y1410618D01*
X682337Y1408952D01*
X687336D01*
Y1415617D01*
X692334Y1417283D02*
Y1415617D01*
X690668D01*
X694000D01*
X692334D01*
Y1410618D01*
X694000Y1408952D01*
X376920Y1420219D02*
X380252D01*
X378586D01*
Y1410222D01*
X376920D01*
X380252D01*
X385251D02*
Y1416887D01*
X390249D01*
X391915Y1415221D01*
Y1410222D01*
X395247Y1406890D02*
Y1416887D01*
X400246D01*
X401912Y1415221D01*
Y1411888D01*
X400246Y1410222D01*
X395247D01*
X405244Y1416887D02*
Y1411888D01*
X406910Y1410222D01*
X411909D01*
Y1416887D01*
X416907Y1418553D02*
Y1416887D01*
X415241D01*
X418573D01*
X416907D01*
Y1411888D01*
X418573Y1410222D01*
X676640Y1379076D02*
X681972D01*
X679306Y1381742D02*
Y1376410D01*
X567672Y1364025D02*
X566339Y1365357D01*
X563673D01*
X562340Y1364025D01*
Y1358693D01*
X563673Y1357360D01*
X566339D01*
X567672Y1358693D01*
Y1361359D01*
X565006D01*
X570337Y1357360D02*
Y1365357D01*
X575669Y1357360D01*
Y1365357D01*
X578335D02*
Y1357360D01*
X582334D01*
X583666Y1358693D01*
Y1364025D01*
X582334Y1365357D01*
X578335D01*
X423910Y1376536D02*
X429242D01*
X426576Y1379202D02*
Y1373870D01*
X313672Y1367834D02*
X312339Y1369167D01*
X309673D01*
X308340Y1367834D01*
Y1362503D01*
X309673Y1361170D01*
X312339D01*
X313672Y1362503D01*
Y1365169D01*
X311006D01*
X316337Y1361170D02*
Y1369167D01*
X321669Y1361170D01*
Y1369167D01*
X324335D02*
Y1361170D01*
X328334D01*
X329666Y1362503D01*
Y1367834D01*
X328334Y1369167D01*
X324335D01*
M02*
