M48
;Layer_Color=9474304
;FILE_FORMAT=4:4
METRIC,LZ
;TYPE=PLATED
T1F00S00C0.7000
T2F00S00C0.8000
T3F00S00C0.8500
T4F00S00C0.9000
T5F00S00C0.9900
T6F00S00C1.0000
T7F00S00C1.1000
T8F00S00C1.1500
T9F00S00C1.2000
%
T01
X0057Y0104
X0062
T02
X0058Y0039
Y0044
X0074Y008973
Y0092
Y009427
X0044Y0123
Y013
T03
X004331Y0071
X003569
X003519Y0081
X004481
X004219Y00955001
X004981
X005469Y00955
X006231
X007Y011919
Y012681
T04
X005369Y006969
Y007223
Y007477
Y007731
X006131
Y007477
Y007223
Y006969
T05
X007275Y004025
X00772499
Y00467499
X007275
T06
X0045525Y0106
Y0113
X0076525Y011175
Y010725
T07
X00695Y00705
X00745
X0072Y00755
T08
X00665Y0038
Y0047
T09
X006096Y01142675
X00635
X006604
M30
